<svg xmlns="http://www.w3.org/2000/svg" width="96" height="96" viewBox="0 0 96 96">
  <defs>
    <linearGradient id="roadBranchFill" x1="50%" y1="0%" x2="50%" y2="100%">
      <stop offset="0%" stop-color="#d8c69a" stop-opacity="0.96"/>
      <stop offset="100%" stop-color="#aa9368" stop-opacity="0.92"/>
    </linearGradient>
  </defs>
  <path d="M42 10 C40 19 39 27 39 35 L39 54 C39 58 42 61 46 61 L50 61 C54 61 57 58 57 54 L57 35 C57 27 56 19 54 10 L48 4 Z"
        fill="url(#roadBranchFill)"/>
  <path d="M43 14 C42 22 42 29 42 35 L42 53" fill="none" stroke="#8a754f" stroke-opacity="0.44" stroke-width="1.8" stroke-linecap="round"/>
  <path d="M53 14 C54 22 54 29 54 35 L54 53" fill="none" stroke="#f5e6bf" stroke-opacity="0.32" stroke-width="1.6" stroke-linecap="round"/>
  <path d="M45 5 L48 2 L51 5" fill="none" stroke="#7b6544" stroke-opacity="0.38" stroke-width="1.4" stroke-linecap="round"/>
</svg>
