<svg xmlns="http://www.w3.org/2000/svg" width="96" height="96" viewBox="0 0 96 96">
  <defs>
    <linearGradient id="waterBranchFill" x1="50%" y1="0%" x2="50%" y2="100%">
      <stop offset="0%" stop-color="#dff4fb" stop-opacity="0.98"/>
      <stop offset="72%" stop-color="#86bfd0" stop-opacity="0.94"/>
      <stop offset="100%" stop-color="#5a8ea7" stop-opacity="0.90"/>
    </linearGradient>
  </defs>
  <path d="M42 9 C39 17 37 25 37 33 L37 55 C37 60 41 64 46 64 L50 64 C55 64 59 60 59 55 L59 33 C59 25 57 17 54 9 L48 3 Z"
        fill="url(#waterBranchFill)"/>
  <path d="M47 9 C45 18 45 26 45 34 L45 57" fill="none" stroke="#f4fcff" stroke-opacity="0.48" stroke-width="1.8" stroke-linecap="round"/>
  <path d="M52 12 C53 22 53 30 53 37 L53 55" fill="none" stroke="#ccecf7" stroke-opacity="0.34" stroke-width="1.4" stroke-linecap="round"/>
</svg>
